<?xml version="1.0" encoding="iso-8859-1"?>
<!-- Generator: Adobe Illustrator 19.0.0, SVG Export Plug-In . SVG Version: 6.00 Build 0)  -->
<svg version="1.1" id="Layer_1" xmlns="http://www.w3.org/2000/svg" xmlns:xlink="http://www.w3.org/1999/xlink" x="0px" y="0px"
	 viewBox="0 0 512 512" style="enable-background:new 0 0 512 512;" xml:space="preserve">
<g>
	<path style="fill:#C1C5C6;" d="M17.655,344.276l-1.218,2.03c21.363,56.638,62.226,103.68,114.406,132.996l28.054-46.751
		l-52.966-88.276H17.655z"/>
	<path style="fill:#ECF0F1;" d="M17.655,167.724l-4.67,7.777C4.599,200.828,0,227.866,0,256s4.599,55.172,12.985,80.499l4.67,7.777
		h88.276L158.897,256l-52.966-88.276H17.655z"/>
	<path style="fill:#C1C5C6;" d="M16.435,165.692l1.218,2.03h88.276l52.966-88.276L130.85,32.696
		C78.661,62.012,37.798,109.054,16.435,165.692"/>
	<path style="fill:#ECF0F1;" d="M256,0c-45.471,0-88.143,11.908-125.158,32.697l28.054,46.751h88.276l46.036-76.721
		C281.053,0.953,268.641,0,256,0"/>
	<path style="fill:#C1C5C6;" d="M293.207,2.724l-46.036,76.721l52.966,88.276h88.276l52.93-88.205
		C402.792,39.041,351.168,11.163,293.207,2.724"/>
	<path style="fill:#ECF0F1;" d="M388.414,167.724L441.379,256H512c0-68.44-26.906-130.56-70.656-176.49L388.414,167.724z"/>
	<path style="fill:#C1C5C6;" d="M441.34,432.487c43.749-45.93,70.656-108.05,70.656-176.49h-70.621l-52.966,88.276L441.34,432.487z"
		/>
	<path style="fill:#ECF0F1;" d="M293.207,509.277c57.962-8.439,109.586-36.317,148.136-76.791l-52.93-88.205h-88.276l-52.966,88.276
		L293.207,509.277z"/>
	<g>
		<path style="fill:#A1ACAD;" d="M256,512c12.641,0,25.053-0.953,37.208-2.728l-46.036-76.721h-88.276l-28.054,46.751
			C167.857,500.092,210.529,512,256,512"/>
		<polygon style="fill:#A1ACAD;" points="158.897,256 105.931,167.724 158.897,79.448 247.172,79.448 300.138,167.724 247.172,256 
					"/>
	</g>
	<polygon style="fill:#778182;" points="300.138,344.276 247.172,256 300.138,167.724 388.414,167.724 441.379,256 388.414,344.276 
			"/>
	<polygon style="fill:#586060;" points="158.897,432.552 105.931,344.276 158.897,256 247.172,256 300.138,344.276 247.172,432.552 
			"/>
	<g>
		<polygon style="fill:#F0C419;" points="203.034,123.619 217.503,152.141 249.865,158.929 226.445,179.665 231.98,211.895 
			203.034,196.676 174.089,211.895 179.624,179.665 156.204,158.929 188.566,152.141 		"/>
		<polygon style="fill:#F0C419;" points="203.034,300.171 217.503,328.693 249.865,335.481 226.445,356.217 231.98,388.446 
			203.034,373.228 174.089,388.446 179.624,356.217 156.204,335.481 188.566,328.693 		"/>
		<polygon style="fill:#F0C419;" points="344.276,211.895 358.744,240.417 391.106,247.205 367.687,267.941 373.221,300.171 
			344.276,284.952 315.33,300.171 320.865,267.941 297.446,247.205 329.807,240.417 		"/>
	</g>
</g>
<g>
</g>
<g>
</g>
<g>
</g>
<g>
</g>
<g>
</g>
<g>
</g>
<g>
</g>
<g>
</g>
<g>
</g>
<g>
</g>
<g>
</g>
<g>
</g>
<g>
</g>
<g>
</g>
<g>
</g>
</svg>
