<svg xmlns="http://www.w3.org/2000/svg" viewBox="0 0 512 512"><path d="M407.863 418.268H21.019c-7.143 0-12.935-5.792-12.935-12.935V106.666c0-7.143 5.792-12.935 12.935-12.935h469.962c7.145 0 12.935 5.792 12.935 12.935v298.667c0 7.143-5.789 12.935-12.935 12.935h-56.17" fill="#04c051"/><path d="M33.415 405.334V106.666c0-7.143 5.792-12.935 12.935-12.935H21.019c-7.143 0-12.935 5.792-12.935 12.935v298.667c0 7.143 5.792 12.935 12.935 12.935H46.35c-7.144 0-12.935-5.791-12.935-12.934z" fill="#08af4b"/><path d="M84.856 161.145H8.084v189.709h76.772c7.144 0 12.935-5.792 12.935-12.935V174.08c0-7.143-5.791-12.935-12.935-12.935z" fill="#69dd0c"/><path fill="#65c610" d="M8.084 161.145h25.331v189.709H8.084z"/><g fill="#69dd0c"><path d="M427.146 161.145h76.77v189.709h-76.77c-7.144 0-12.935-5.792-12.935-12.935V174.08c0-7.143 5.791-12.935 12.935-12.935z"/><circle cx="256" cy="256" r="59.284"/><path d="M157.075 256c0-32.741-26.542-59.284-59.284-59.284v118.568c32.742 0 59.284-26.543 59.284-59.284zM40.577 215.854H8.084v80.292h32.493a5.476 5.476 0 005.475-5.476v-69.342a5.475 5.475 0 00-5.475-5.474zM354.927 256c0-32.741 26.542-59.284 59.284-59.284v118.568c-32.742 0-59.284-26.543-59.284-59.284zM471.425 215.854h32.491v80.292h-32.491a5.476 5.476 0 01-5.475-5.476v-69.342a5.475 5.475 0 015.475-5.474z"/></g><g fill="#f5f5f5"><path d="M495.832 223.938V207.77h-24.407c-7.476 0-13.559 6.083-13.559 13.559v69.342c0 7.476 6.084 13.56 13.559 13.56h24.407v-16.168h-21.797v-64.124l21.797-.001z"/><path d="M427.146 153.061c-11.591 0-21.019 9.429-21.019 21.019v15.054c-33.346 4.009-59.284 32.455-59.284 66.866s25.938 62.859 59.284 66.866v15.054c0 11.59 9.428 21.019 21.019 21.019h68.686v-16.168h-68.686a4.857 4.857 0 01-4.851-4.851V174.08a4.857 4.857 0 014.851-4.851h68.686v-16.168h-68.686zm-21.019 153.501c-24.406-3.886-43.116-25.08-43.116-50.562 0-25.483 18.71-46.676 43.116-50.562v101.124zM247.916 101.816v87.318c-33.347 4.009-59.284 32.455-59.284 66.866s25.937 62.859 59.284 66.866v87.318h16.168v-87.318c33.348-4.009 59.284-32.455 59.284-66.866s-25.937-62.857-59.284-66.866v-87.318h-16.168zm0 204.739C223.513 302.667 204.8 281.48 204.8 256c0-25.481 18.713-46.667 43.116-50.555v101.11zM307.2 256c0 25.481-18.711 46.667-43.116 50.555V205.444C288.489 209.333 307.2 230.519 307.2 256zM16.168 358.939h68.688c11.591 0 21.019-9.429 21.019-21.019v-15.054c33.346-4.009 59.284-32.455 59.284-66.866s-25.938-62.857-59.284-66.866V174.08c0-11.59-9.428-21.019-21.019-21.019H16.168v-18.883 235.699-10.938zm89.707-153.501c24.406 3.886 43.116 25.08 43.116 50.562s-18.71 46.676-43.116 50.562V205.438zm-89.707 18.5h21.799v64.124H16.168v-64.124zm0 80.292h24.409c7.476 0 13.559-6.084 13.559-13.56v-69.342c0-7.476-6.084-13.559-13.559-13.559H16.168v-38.54h68.688a4.857 4.857 0 014.851 4.851v163.84a4.857 4.857 0 01-4.851 4.851H16.168V304.23z"/></g><path d="M490.981 85.647H21.019C9.429 85.647 0 95.077 0 106.666v298.668c0 11.59 9.429 21.019 21.019 21.019H490.98c11.592 0 21.019-9.429 21.019-21.019V106.666c.001-11.589-9.426-21.019-21.018-21.019zm4.851 53.56v266.125a4.856 4.856 0 01-4.851 4.851H21.019a4.856 4.856 0 01-4.851-4.851V106.666a4.857 4.857 0 014.851-4.851h469.962a4.856 4.856 0 014.851 4.851v32.541z" fill="#02a544"/></svg>